<?xml version="1.0" encoding="utf-8"?>
<!-- Generator: Adobe Illustrator 24.1.2, SVG Export Plug-In . SVG Version: 6.00 Build 0)  -->
<svg version="1.1" id="Camada_1" xmlns="http://www.w3.org/2000/svg" xmlns:xlink="http://www.w3.org/1999/xlink" x="0px" y="0px"
	 viewBox="0 0 927 920" style="enable-background:new 0 0 927 920;" xml:space="preserve">
<style type="text/css">
	.st0{fill:url(#SVGID_1_);}
	.st1{fill:url(#SVGID_2_);}
	.st2{fill:url(#SVGID_3_);}
	.st3{fill:url(#SVGID_4_);}
	.st4{fill:url(#SVGID_5_);}
	.st5{fill:url(#SVGID_6_);}
	.st6{fill:url(#SVGID_7_);}
	.st7{fill:url(#SVGID_8_);}
	.st8{fill:url(#SVGID_9_);}
	.st9{fill:url(#SVGID_10_);}
	.st10{fill:url(#SVGID_11_);}
	.st11{fill:url(#SVGID_12_);}
	.st12{fill:url(#SVGID_13_);}
	.st13{fill:url(#SVGID_14_);}
	.st14{fill:url(#SVGID_15_);}
	.st15{fill:url(#SVGID_16_);}
	.st16{fill:url(#SVGID_17_);}
	.st17{fill:url(#SVGID_18_);}
	.st18{fill:url(#SVGID_19_);}
	.st19{fill:url(#SVGID_20_);}
	.st20{fill:url(#SVGID_21_);}
	.st21{fill:url(#SVGID_22_);}
	.st22{fill:url(#SVGID_23_);}
	.st23{fill:url(#SVGID_24_);}
	.st24{fill:url(#SVGID_25_);}
	.st25{fill:url(#SVGID_26_);}
	.st26{fill:url(#SVGID_27_);}
	.st27{fill:url(#SVGID_28_);}
	.st28{fill:url(#SVGID_29_);}
	.st29{fill:url(#SVGID_30_);}
	.st30{fill:url(#SVGID_31_);}
	.st31{fill:url(#SVGID_32_);}
	.st32{fill:url(#SVGID_33_);}
	.st33{fill:url(#SVGID_34_);}
	.st34{fill:url(#SVGID_35_);}
	.st35{fill:url(#SVGID_36_);}
	.st36{fill:url(#SVGID_37_);}
	.st37{fill:url(#SVGID_38_);}
	.st38{fill:url(#SVGID_39_);}
	.st39{fill:url(#SVGID_40_);}
	.st40{fill:url(#SVGID_41_);}
	.st41{fill:url(#SVGID_42_);}
	.st42{fill:url(#SVGID_43_);}
	.st43{fill:url(#SVGID_44_);}
</style>
<g>
	<linearGradient id="SVGID_1_" gradientUnits="userSpaceOnUse" x1="588.8974" y1="125.1239" x2="379.1147" y2="488.4781">
		<stop  offset="0.1648" style="stop-color:#FFFFFF"/>
		<stop  offset="0.3492" style="stop-color:#FAFAFA"/>
		<stop  offset="0.5723" style="stop-color:#EBEBEB"/>
		<stop  offset="0.8144" style="stop-color:#D3D3D3"/>
		<stop  offset="1" style="stop-color:#BBBBBB"/>
	</linearGradient>
	<path class="st0" d="M704.24,201.02H218.15c-37.06,0-65.24,33.27-59.15,69.83l0,0c10.28,61.68,71.48,101.08,131.88,84.89
		l72.04-19.3c39.09-10.47,74.86,25.29,64.38,64.38l-3.73,13.92c-19.75,73.71,35.79,146.09,112.1,146.09h128.59
		c29.31,0,54.33-21.19,59.15-50.11l39.98-239.87C769.49,234.3,741.3,201.02,704.24,201.02z"/>
	<linearGradient id="SVGID_2_" gradientUnits="userSpaceOnUse" x1="336.4724" y1="379.9454" x2="250.9271" y2="528.1143">
		<stop  offset="0.1648" style="stop-color:#FFFFFF"/>
		<stop  offset="0.3492" style="stop-color:#FAFAFA"/>
		<stop  offset="0.5723" style="stop-color:#EBEBEB"/>
		<stop  offset="0.8144" style="stop-color:#D3D3D3"/>
		<stop  offset="1" style="stop-color:#BBBBBB"/>
	</linearGradient>
	<path class="st1" d="M341,391.27l-119.58,32.04c-22.94,6.15-25.98,37.45-4.66,47.9l42.95,21.06c5.12,2.51,9.25,6.65,11.76,11.76
		l21.06,42.95c10.45,21.32,41.76,18.27,47.9-4.66l32.04-119.58C377.6,403.64,360.11,386.15,341,391.27z"/>
	<g>
		<linearGradient id="SVGID_3_" gradientUnits="userSpaceOnUse" x1="521.2407" y1="30.8448" x2="415.8594" y2="213.3706">
			<stop  offset="0.1648" style="stop-color:#FFFFFF"/>
			<stop  offset="0.3492" style="stop-color:#FAFAFA"/>
			<stop  offset="0.5723" style="stop-color:#EBEBEB"/>
			<stop  offset="0.8144" style="stop-color:#D3D3D3"/>
			<stop  offset="1" style="stop-color:#BBBBBB"/>
		</linearGradient>
		<path class="st2" d="M570.85,172.7c-12.61,0-22.84-10.22-22.84-22.84v-0.72c0-47.87-38.94-86.82-86.82-86.82
			s-86.82,38.95-86.82,86.82v0.72c0,12.61-10.22,22.84-22.84,22.84c-12.61,0-22.84-10.22-22.84-22.84v-0.72
			c0-73.06,59.43-132.5,132.49-132.5s132.49,59.44,132.49,132.5v0.72C593.69,162.48,583.47,172.7,570.85,172.7z"/>
	</g>
	<g>
		<linearGradient id="SVGID_4_" gradientUnits="userSpaceOnUse" x1="572.3607" y1="609.8173" x2="540.642" y2="664.7558">
			<stop  offset="0.1648" style="stop-color:#FFFFFF"/>
			<stop  offset="0.3492" style="stop-color:#FAFAFA"/>
			<stop  offset="0.5723" style="stop-color:#EBEBEB"/>
			<stop  offset="0.8144" style="stop-color:#D3D3D3"/>
			<stop  offset="1" style="stop-color:#BBBBBB"/>
		</linearGradient>
		<circle class="st3" cx="556.5" cy="637.29" r="31.71"/>
		<linearGradient id="SVGID_5_" gradientUnits="userSpaceOnUse" x1="403.3879" y1="609.8173" x2="371.6692" y2="664.7558">
			<stop  offset="0.1648" style="stop-color:#FFFFFF"/>
			<stop  offset="0.3492" style="stop-color:#FAFAFA"/>
			<stop  offset="0.5723" style="stop-color:#EBEBEB"/>
			<stop  offset="0.8144" style="stop-color:#D3D3D3"/>
			<stop  offset="1" style="stop-color:#BBBBBB"/>
		</linearGradient>
		<circle class="st4" cx="387.53" cy="637.29" r="31.71"/>
	</g>
</g>
<g>
	<g>
		<g>
			<linearGradient id="SVGID_6_" gradientUnits="userSpaceOnUse" x1="61.157" y1="826.8291" x2="61.157" y2="733.1592">
				<stop  offset="0.014" style="stop-color:#FFFFFF"/>
				<stop  offset="1" style="stop-color:#FFFFFF"/>
			</linearGradient>
			<path class="st5" d="M91.45,815.06c-7.15,7.85-17.24,11.77-30.29,11.77c-13.05,0-23.15-3.92-30.29-11.77
				c-7.15-7.85-10.72-19.53-10.72-35.06c0-15.45,3.57-27.11,10.72-35c7.14-7.89,17.24-11.83,30.29-11.83
				c13.05,0,23.15,3.95,30.29,11.83c7.14,7.89,10.72,19.56,10.72,35C102.17,795.52,98.59,807.21,91.45,815.06z M69.64,764.26
				c-1.94-3.8-4.77-5.7-8.49-5.7c-3.72,0-6.55,1.9-8.49,5.7c-1.94,3.8-2.91,9.04-2.91,15.74s0.97,11.92,2.91,15.67
				c1.94,3.76,4.77,5.64,8.49,5.64c3.72,0,6.55-1.88,8.49-5.64c1.94-3.76,2.91-8.98,2.91-15.67S71.58,768.06,69.64,764.26z"/>
			<linearGradient id="SVGID_7_" gradientUnits="userSpaceOnUse" x1="152.9673" y1="824.5986" x2="152.9673" y2="758.4355">
				<stop  offset="0.014" style="stop-color:#FFFFFF"/>
				<stop  offset="1" style="stop-color:#FFFFFF"/>
			</linearGradient>
			<path class="st6" d="M185.12,823.61c-0.46,0.66-1.01,0.99-1.67,0.99h-23.42c-0.66,0-1.22-0.33-1.67-0.99
				c-0.46-0.66-0.68-1.44-0.68-2.35v-32.46c0-4.29-1.32-6.44-3.96-6.44c-3.55,0-5.33,3.1-5.33,9.29v29.61
				c0,0.91-0.23,1.69-0.68,2.35c-0.46,0.66-1.01,0.99-1.67,0.99h-23.54c-0.66,0-1.22-0.33-1.67-0.99c-0.46-0.66-0.68-1.44-0.68-2.35
				v-57.37c0-0.91,0.23-1.69,0.68-2.35c0.45-0.66,1.01-0.99,1.67-0.99h22.18c0.66,0,1.2,0.31,1.61,0.93
				c0.41,0.62,0.66,1.38,0.74,2.29l0.12,2.48c2.15-2.31,4.65-4.19,7.5-5.64c2.85-1.44,6.01-2.17,9.48-2.17
				c7.02,0,12.39,2.42,16.11,7.25c3.72,4.83,5.58,11.92,5.58,21.25v34.32C185.8,822.16,185.57,822.95,185.12,823.61z"/>
			<linearGradient id="SVGID_8_" gradientUnits="userSpaceOnUse" x1="217.8904" y1="824.5986" x2="217.8904" y2="735.3896">
				<stop  offset="0.014" style="stop-color:#FFFFFF"/>
				<stop  offset="1" style="stop-color:#FFFFFF"/>
			</linearGradient>
			<path class="st7" d="M231.33,823.61c-0.46,0.66-1.01,0.99-1.67,0.99h-23.54c-0.66,0-1.22-0.33-1.67-0.99
				c-0.46-0.66-0.68-1.44-0.68-2.35v-82.52c0-1.07,0.23-1.9,0.68-2.48c0.45-0.58,1.01-0.87,1.67-0.87h23.54
				c0.66,0,1.22,0.29,1.67,0.87c0.45,0.58,0.68,1.41,0.68,2.48v82.52C232.02,822.16,231.79,822.95,231.33,823.61z"/>
			<linearGradient id="SVGID_9_" gradientUnits="userSpaceOnUse" x1="264.1042" y1="824.5986" x2="264.1042" y2="735.3896">
				<stop  offset="0.014" style="stop-color:#FFFFFF"/>
				<stop  offset="1" style="stop-color:#FFFFFF"/>
			</linearGradient>
			<path class="st8" d="M277.55,756.64c-0.46,0.54-1.01,0.81-1.67,0.81h-23.54c-0.66,0-1.22-0.27-1.67-0.81
				c-0.46-0.54-0.68-1.34-0.68-2.42v-15.49c0-1.07,0.23-1.9,0.68-2.48c0.45-0.58,1.01-0.87,1.67-0.87h23.54
				c0.66,0,1.22,0.29,1.67,0.87c0.45,0.58,0.68,1.41,0.68,2.48v15.49C278.23,755.3,278,756.1,277.55,756.64z M277.55,823.61
				c-0.46,0.66-1.01,0.99-1.67,0.99h-23.54c-0.66,0-1.22-0.33-1.67-0.99c-0.46-0.66-0.68-1.44-0.68-2.35v-57.37
				c0-0.91,0.23-1.69,0.68-2.35c0.45-0.66,1.01-0.99,1.67-0.99h23.54c0.66,0,1.22,0.33,1.67,0.99c0.45,0.66,0.68,1.45,0.68,2.35
				v57.37C278.23,822.16,278,822.95,277.55,823.61z"/>
			<linearGradient id="SVGID_10_" gradientUnits="userSpaceOnUse" x1="329.0273" y1="824.5986" x2="329.0273" y2="758.4355">
				<stop  offset="0.014" style="stop-color:#FFFFFF"/>
				<stop  offset="1" style="stop-color:#FFFFFF"/>
			</linearGradient>
			<path class="st9" d="M361.18,823.61c-0.46,0.66-1.01,0.99-1.67,0.99h-23.42c-0.66,0-1.22-0.33-1.67-0.99
				c-0.46-0.66-0.68-1.44-0.68-2.35v-32.46c0-4.29-1.32-6.44-3.96-6.44c-3.55,0-5.33,3.1-5.33,9.29v29.61
				c0,0.91-0.23,1.69-0.68,2.35c-0.46,0.66-1.01,0.99-1.67,0.99h-23.54c-0.66,0-1.22-0.33-1.67-0.99c-0.46-0.66-0.68-1.44-0.68-2.35
				v-57.37c0-0.91,0.23-1.69,0.68-2.35c0.45-0.66,1.01-0.99,1.67-0.99h22.18c0.66,0,1.2,0.31,1.61,0.93
				c0.41,0.62,0.66,1.38,0.74,2.29l0.12,2.48c2.15-2.31,4.65-4.19,7.5-5.64c2.85-1.44,6.01-2.17,9.48-2.17
				c7.02,0,12.39,2.42,16.11,7.25c3.72,4.83,5.58,11.92,5.58,21.25v34.32C361.86,822.16,361.63,822.95,361.18,823.61z"/>
			<linearGradient id="SVGID_11_" gradientUnits="userSpaceOnUse" x1="412.9695" y1="826.8291" x2="412.9695" y2="758.4355">
				<stop  offset="0.014" style="stop-color:#FFFFFF"/>
				<stop  offset="1" style="stop-color:#FFFFFF"/>
			</linearGradient>
			<path class="st10" d="M445.43,799.45c-0.46,0.66-1.01,0.99-1.67,0.99h-36.18c0.25,2.31,0.74,4.01,1.49,5.08
				c0.91,1.65,2.31,2.48,4.21,2.48c1.4,0,2.5-0.19,3.28-0.56c0.78-0.37,1.26-1.13,1.42-2.29c0.17-0.74,0.45-1.36,0.87-1.86
				c0.41-0.5,0.87-0.74,1.36-0.74h23.05c0.82,0,1.46,0.39,1.92,1.18c0.45,0.79,0.6,1.71,0.43,2.79c-0.41,3.64-1.47,6.75-3.16,9.35
				c-1.69,2.6-3.92,4.71-6.69,6.32c-2.77,1.61-6.07,2.79-9.91,3.53s-8.12,1.12-12.82,1.12c-10.66,0-18.85-2.83-24.59-8.49
				c-5.74-5.66-8.61-14.23-8.61-25.71c0-11.32,2.87-19.84,8.61-25.58c5.74-5.74,13.81-8.61,24.22-8.61
				c10.57,0,18.79,2.89,24.66,8.67c5.86,5.78,8.8,14.42,8.8,25.9v4.21C446.11,798.04,445.88,798.79,445.43,799.45z M417.62,783.53
				c-0.17-1.12-0.39-2.15-0.68-3.1c-0.29-0.95-0.72-1.75-1.3-2.42c-0.58-0.66-1.36-0.95-2.35-0.87c-0.91,0.08-1.73,0.29-2.48,0.62
				c-0.74,0.33-1.32,0.87-1.73,1.61c-0.17,0.17-0.31,0.56-0.43,1.18s-0.23,1.3-0.31,2.04c-0.08,0.74-0.17,1.47-0.25,2.17
				c-0.08,0.7-0.17,1.26-0.25,1.67h10.41C417.99,785.61,417.78,784.64,417.62,783.53z"/>
			<linearGradient id="SVGID_12_" gradientUnits="userSpaceOnUse" x1="526.2759" y1="824.5986" x2="526.2759" y2="735.3896">
				<stop  offset="0.014" style="stop-color:#FFFFFF"/>
				<stop  offset="1" style="stop-color:#FFFFFF"/>
			</linearGradient>
			<path class="st11" d="M555.21,790.03c-3.92,5.37-9.77,8.05-17.53,8.05h-17.1v23.17c0,0.91-0.23,1.69-0.68,2.35
				c-0.45,0.66-1.01,0.99-1.67,0.99h-24.41c-0.66,0-1.22-0.33-1.67-0.99c-0.45-0.66-0.68-1.44-0.68-2.35v-82.52
				c0-1.07,0.23-1.9,0.68-2.48c0.45-0.58,1.01-0.87,1.67-0.87h42.13c8.18,0,14.41,2.64,18.71,7.93c4.29,5.29,6.44,13.01,6.44,23.17
				C561.09,776.82,559.13,784.66,555.21,790.03z M530.86,760.98c-1.16-1.03-2.93-1.55-5.33-1.55h-4.96v14.5h2.97
				c3.14,0,5.43-0.54,6.88-1.61c1.44-1.07,2.17-3.06,2.17-5.95C532.59,763.81,532.02,762.01,530.86,760.98z"/>
			<linearGradient id="SVGID_13_" gradientUnits="userSpaceOnUse" x1="611.7938" y1="826.8291" x2="611.7938" y2="758.4355">
				<stop  offset="0.014" style="stop-color:#FFFFFF"/>
				<stop  offset="1" style="stop-color:#FFFFFF"/>
			</linearGradient>
			<path class="st12" d="M643.86,824.6c-0.5,0-0.87,0-1.12,0h-21.06c-0.66,0-1.22-0.27-1.67-0.81c-0.46-0.54-0.68-1.3-0.68-2.29
				v-1.36c-1.9,1.98-4.25,3.59-7.06,4.83c-2.81,1.24-6.24,1.86-10.28,1.86c-8.01,0-13.84-1.55-17.47-4.65
				c-3.64-3.1-5.45-8.28-5.45-15.55c0-3.3,0.76-6.26,2.29-8.86c1.53-2.6,3.53-4.89,6.01-6.88c2.48-1.98,5.33-3.63,8.55-4.96
				c3.22-1.32,6.52-2.31,9.91-2.97l-22.05,0.87c-0.66,0-1.22-0.33-1.67-0.99c-0.46-0.66-0.68-1.53-0.68-2.6
				c0.17-6.69,2.79-12,7.87-15.92c5.08-3.92,12.78-5.88,23.11-5.88c5.12,0,9.66,0.46,13.63,1.36c3.96,0.91,7.23,2.31,9.79,4.21
				c5.7,4.21,8.55,11.69,8.55,22.43v26.14c0,2.07,0.04,4.63,0.12,7.68v3.1C644.64,824.19,644.43,824.6,643.86,824.6z M616.1,800.44
				c-6.53,0-9.79,1.45-9.79,4.34c0,0.91,0.35,1.67,1.05,2.29c0.7,0.62,1.67,0.93,2.91,0.93c1.65,0,3.12-0.66,4.4-1.98
				c1.28-1.32,2.04-3.18,2.29-5.58H616.1z M612.63,777.14c-1.65,0-3.02,0.27-4.09,0.81c-1.07,0.54-1.69,1.34-1.86,2.42
				c-0.08,0.5-0.17,1.36-0.25,2.6c2.81-0.17,4.71-0.25,5.7-0.25h4.96C617.01,779,615.52,777.14,612.63,777.14z"/>
			<linearGradient id="SVGID_14_" gradientUnits="userSpaceOnUse" x1="676.4409" y1="824.5986" x2="676.4409" y2="735.3896">
				<stop  offset="0.014" style="stop-color:#FFFFFF"/>
				<stop  offset="1" style="stop-color:#FFFFFF"/>
			</linearGradient>
			<path class="st13" d="M689.88,756.64c-0.46,0.54-1.01,0.81-1.67,0.81h-23.54c-0.66,0-1.22-0.27-1.67-0.81
				c-0.45-0.54-0.68-1.34-0.68-2.42v-15.49c0-1.07,0.23-1.9,0.68-2.48c0.45-0.58,1.01-0.87,1.67-0.87h23.54
				c0.66,0,1.22,0.29,1.67,0.87c0.45,0.58,0.68,1.41,0.68,2.48v15.49C690.57,755.3,690.34,756.1,689.88,756.64z M689.88,823.61
				c-0.46,0.66-1.01,0.99-1.67,0.99h-23.54c-0.66,0-1.22-0.33-1.67-0.99c-0.45-0.66-0.68-1.44-0.68-2.35v-57.37
				c0-0.91,0.23-1.69,0.68-2.35c0.45-0.66,1.01-0.99,1.67-0.99h23.54c0.66,0,1.22,0.33,1.67,0.99c0.45,0.66,0.68,1.45,0.68,2.35
				v57.37C690.57,822.16,690.34,822.95,689.88,823.61z"/>
			<linearGradient id="SVGID_15_" gradientUnits="userSpaceOnUse" x1="741.3638" y1="824.5986" x2="741.3638" y2="758.4355">
				<stop  offset="0.014" style="stop-color:#FFFFFF"/>
				<stop  offset="1" style="stop-color:#FFFFFF"/>
			</linearGradient>
			<path class="st14" d="M773.52,823.61c-0.46,0.66-1.01,0.99-1.67,0.99h-23.42c-0.66,0-1.22-0.33-1.67-0.99
				c-0.46-0.66-0.68-1.44-0.68-2.35v-32.46c0-4.29-1.32-6.44-3.96-6.44c-3.55,0-5.33,3.1-5.33,9.29v29.61
				c0,0.91-0.23,1.69-0.68,2.35c-0.46,0.66-1.01,0.99-1.67,0.99h-23.54c-0.66,0-1.22-0.33-1.67-0.99c-0.45-0.66-0.68-1.44-0.68-2.35
				v-57.37c0-0.91,0.23-1.69,0.68-2.35c0.45-0.66,1.01-0.99,1.67-0.99h22.18c0.66,0,1.2,0.31,1.61,0.93
				c0.41,0.62,0.66,1.38,0.74,2.29l0.12,2.48c2.15-2.31,4.65-4.19,7.5-5.64c2.85-1.44,6.01-2.17,9.48-2.17
				c7.02,0,12.39,2.42,16.11,7.25s5.58,11.92,5.58,21.25v34.32C774.2,822.16,773.97,822.95,773.52,823.61z"/>
			<linearGradient id="SVGID_16_" gradientUnits="userSpaceOnUse" x1="825.3066" y1="826.8291" x2="825.3066" y2="758.4355">
				<stop  offset="0.014" style="stop-color:#FFFFFF"/>
				<stop  offset="1" style="stop-color:#FFFFFF"/>
			</linearGradient>
			<path class="st15" d="M857.77,799.45c-0.46,0.66-1.01,0.99-1.67,0.99h-36.18c0.25,2.31,0.74,4.01,1.49,5.08
				c0.91,1.65,2.31,2.48,4.21,2.48c1.4,0,2.5-0.19,3.28-0.56c0.78-0.37,1.26-1.13,1.42-2.29c0.17-0.74,0.45-1.36,0.87-1.86
				c0.41-0.5,0.87-0.74,1.36-0.74h23.05c0.82,0,1.46,0.39,1.92,1.18c0.45,0.79,0.6,1.71,0.43,2.79c-0.41,3.64-1.47,6.75-3.16,9.35
				c-1.69,2.6-3.92,4.71-6.69,6.32c-2.77,1.61-6.07,2.79-9.91,3.53s-8.12,1.12-12.82,1.12c-10.66,0-18.85-2.83-24.59-8.49
				c-5.74-5.66-8.61-14.23-8.61-25.71c0-11.32,2.87-19.84,8.61-25.58c5.74-5.74,13.82-8.61,24.22-8.61
				c10.57,0,18.79,2.89,24.66,8.67c5.86,5.78,8.8,14.42,8.8,25.9v4.21C858.45,798.04,858.22,798.79,857.77,799.45z M829.95,783.53
				c-0.17-1.12-0.39-2.15-0.68-3.1c-0.29-0.95-0.72-1.75-1.3-2.42c-0.58-0.66-1.36-0.95-2.35-0.87c-0.91,0.08-1.73,0.29-2.48,0.62
				c-0.74,0.33-1.32,0.87-1.73,1.61c-0.17,0.17-0.31,0.56-0.43,1.18s-0.23,1.3-0.31,2.04c-0.08,0.74-0.17,1.47-0.25,2.17
				c-0.08,0.7-0.17,1.26-0.25,1.67h10.41C830.32,785.61,830.12,784.64,829.95,783.53z"/>
			<linearGradient id="SVGID_17_" gradientUnits="userSpaceOnUse" x1="890.5396" y1="824.5986" x2="890.5396" y2="735.3896">
				<stop  offset="0.014" style="stop-color:#FFFFFF"/>
				<stop  offset="1" style="stop-color:#FFFFFF"/>
			</linearGradient>
			<path class="st16" d="M903.98,823.61c-0.46,0.66-1.01,0.99-1.67,0.99h-23.54c-0.66,0-1.22-0.33-1.67-0.99
				c-0.45-0.66-0.68-1.44-0.68-2.35v-82.52c0-1.07,0.23-1.9,0.68-2.48c0.45-0.58,1.01-0.87,1.67-0.87h23.54
				c0.66,0,1.22,0.29,1.67,0.87c0.45,0.58,0.68,1.41,0.68,2.48v82.52C904.66,822.16,904.44,822.95,903.98,823.61z"/>
		</g>
	</g>
	<g>
		<g>
			<linearGradient id="SVGID_18_" gradientUnits="userSpaceOnUse" x1="108.3992" y1="893.1865" x2="108.3992" y2="861.8711">
				<stop  offset="0.014" style="stop-color:#FFFFFF"/>
				<stop  offset="1" style="stop-color:#FFFFFF"/>
			</linearGradient>
			<path class="st17" d="M100.2,887.96c1.76,1.08,4.33,1.98,7.03,1.98c4.01,0,6.35-2.12,6.35-5.18c0-2.84-1.62-4.46-5.72-6.04
				c-4.96-1.76-8.02-4.33-8.02-8.61c0-4.73,3.92-8.25,9.82-8.25c3.11,0,5.36,0.72,6.71,1.49l-1.08,3.2
				c-0.99-0.54-3.02-1.44-5.77-1.44c-4.15,0-5.72,2.48-5.72,4.55c0,2.84,1.85,4.24,6.04,5.86c5.14,1.98,7.75,4.46,7.75,8.92
				c0,4.69-3.47,8.74-10.63,8.74c-2.93,0-6.13-0.86-7.75-1.94L100.2,887.96z"/>
			<linearGradient id="SVGID_19_" gradientUnits="userSpaceOnUse" x1="136.7607" y1="893.1865" x2="136.7607" y2="870.4316">
				<stop  offset="0.014" style="stop-color:#FFFFFF"/>
				<stop  offset="1" style="stop-color:#FFFFFF"/>
			</linearGradient>
			<path class="st18" d="M130.93,882.55c0.09,5.36,3.51,7.57,7.48,7.57c2.84,0,4.55-0.5,6.04-1.13l0.68,2.84
				c-1.4,0.63-3.79,1.35-7.25,1.35c-6.71,0-10.72-4.42-10.72-10.99c0-6.58,3.88-11.76,10.23-11.76c7.12,0,9.01,6.26,9.01,10.27
				c0,0.81-0.09,1.44-0.14,1.85H130.93z M142.55,879.71c0.04-2.52-1.04-6.44-5.5-6.44c-4.01,0-5.77,3.7-6.08,6.44H142.55z"/>
			<linearGradient id="SVGID_20_" gradientUnits="userSpaceOnUse" x1="166.0688" y1="893.2324" x2="166.0688" y2="870.9277">
				<stop  offset="0.014" style="stop-color:#FFFFFF"/>
				<stop  offset="1" style="stop-color:#FFFFFF"/>
			</linearGradient>
			<path class="st19" d="M175.17,886.79c0,2.25,0.05,4.24,0.18,5.95h-3.51l-0.23-3.56h-0.09c-1.04,1.76-3.33,4.06-7.21,4.06
				c-3.42,0-7.52-1.89-7.52-9.55v-12.75h3.96V883c0,4.15,1.26,6.94,4.87,6.94c2.66,0,4.51-1.85,5.23-3.6
				c0.23-0.59,0.36-1.31,0.36-2.03v-13.38h3.96V886.79z"/>
			<linearGradient id="SVGID_21_" gradientUnits="userSpaceOnUse" x1="212.4297" y1="893.1865" x2="212.4297" y2="861.8711">
				<stop  offset="0.014" style="stop-color:#FFFFFF"/>
				<stop  offset="1" style="stop-color:#FFFFFF"/>
			</linearGradient>
			<path class="st20" d="M223.92,891.75c-1.44,0.72-4.33,1.44-8.02,1.44c-8.56,0-15-5.41-15-15.37c0-9.51,6.44-15.95,15.86-15.95
				c3.79,0,6.17,0.81,7.21,1.35l-0.95,3.2c-1.49-0.72-3.6-1.26-6.13-1.26c-7.12,0-11.85,4.55-11.85,12.53
				c0,7.43,4.28,12.21,11.67,12.21c2.39,0,4.82-0.5,6.4-1.26L223.92,891.75z"/>
			<linearGradient id="SVGID_22_" gradientUnits="userSpaceOnUse" x1="242.9099" y1="893.2324" x2="242.9099" y2="870.4316">
				<stop  offset="0.014" style="stop-color:#FFFFFF"/>
				<stop  offset="1" style="stop-color:#FFFFFF"/>
			</linearGradient>
			<path class="st21" d="M253.57,881.65c0,8.07-5.59,11.58-10.86,11.58c-5.9,0-10.45-4.33-10.45-11.22c0-7.3,4.78-11.58,10.81-11.58
				C249.33,870.43,253.57,874.98,253.57,881.65z M236.26,881.88c0,4.78,2.75,8.38,6.62,8.38c3.79,0,6.62-3.56,6.62-8.47
				c0-3.7-1.85-8.38-6.53-8.38C238.29,873.41,236.26,877.73,236.26,881.88z"/>
			<linearGradient id="SVGID_23_" gradientUnits="userSpaceOnUse" x1="273.3889" y1="892.7363" x2="273.3889" y2="870.4316">
				<stop  offset="0.014" style="stop-color:#FFFFFF"/>
				<stop  offset="1" style="stop-color:#FFFFFF"/>
			</linearGradient>
			<path class="st22" d="M264.2,876.83c0-2.25-0.05-4.1-0.18-5.9h3.51l0.23,3.6h0.09c1.08-2.07,3.6-4.1,7.21-4.1
				c3.02,0,7.71,1.8,7.71,9.28v13.02h-3.96v-12.57c0-3.51-1.31-6.44-5.05-6.44c-2.61,0-4.64,1.85-5.32,4.05
				c-0.18,0.5-0.27,1.17-0.27,1.85v13.11h-3.96V876.83z"/>
			<linearGradient id="SVGID_24_" gradientUnits="userSpaceOnUse" x1="298.6418" y1="893.1865" x2="298.6418" y2="864.6641">
				<stop  offset="0.014" style="stop-color:#FFFFFF"/>
				<stop  offset="1" style="stop-color:#FFFFFF"/>
			</linearGradient>
			<path class="st23" d="M299.43,864.66v6.26h5.68v3.02h-5.68v11.76c0,2.7,0.77,4.24,2.97,4.24c1.04,0,1.8-0.13,2.3-0.27l0.18,2.97
				c-0.77,0.32-1.98,0.54-3.51,0.54c-1.85,0-3.33-0.58-4.28-1.67c-1.13-1.17-1.53-3.11-1.53-5.68v-11.9h-3.38v-3.02h3.38v-5.23
				L299.43,864.66z"/>
			<linearGradient id="SVGID_25_" gradientUnits="userSpaceOnUse" x1="320.4934" y1="892.7363" x2="320.4934" y2="870.4316">
				<stop  offset="0.014" style="stop-color:#FFFFFF"/>
				<stop  offset="1" style="stop-color:#FFFFFF"/>
			</linearGradient>
			<path class="st24" d="M315.2,877.73c0-2.57-0.05-4.78-0.18-6.8h3.47l0.14,4.28h0.18c0.99-2.93,3.38-4.78,6.04-4.78
				c0.45,0,0.77,0.05,1.13,0.14v3.74c-0.41-0.09-0.81-0.13-1.35-0.13c-2.79,0-4.78,2.12-5.32,5.09c-0.09,0.54-0.18,1.17-0.18,1.85
				v11.63h-3.92V877.73z"/>
			<linearGradient id="SVGID_26_" gradientUnits="userSpaceOnUse" x1="344.1926" y1="893.2324" x2="344.1926" y2="870.4316">
				<stop  offset="0.014" style="stop-color:#FFFFFF"/>
				<stop  offset="1" style="stop-color:#FFFFFF"/>
			</linearGradient>
			<path class="st25" d="M354.85,881.65c0,8.07-5.59,11.58-10.86,11.58c-5.9,0-10.45-4.33-10.45-11.22c0-7.3,4.78-11.58,10.81-11.58
				C350.61,870.43,354.85,874.98,354.85,881.65z M337.55,881.88c0,4.78,2.75,8.38,6.62,8.38c3.79,0,6.62-3.56,6.62-8.47
				c0-3.7-1.85-8.38-6.53-8.38C339.57,873.41,337.55,877.73,337.55,881.88z"/>
			<linearGradient id="SVGID_27_" gradientUnits="userSpaceOnUse" x1="367.4629" y1="892.7363" x2="367.4629" y2="860.7441">
				<stop  offset="0.014" style="stop-color:#FFFFFF"/>
				<stop  offset="1" style="stop-color:#FFFFFF"/>
			</linearGradient>
			<path class="st26" d="M365.48,860.74h3.96v31.99h-3.96V860.74z"/>
			<linearGradient id="SVGID_28_" gradientUnits="userSpaceOnUse" x1="389.7876" y1="893.1865" x2="389.7876" y2="870.4316">
				<stop  offset="0.014" style="stop-color:#FFFFFF"/>
				<stop  offset="1" style="stop-color:#FFFFFF"/>
			</linearGradient>
			<path class="st27" d="M383.95,882.55c0.09,5.36,3.51,7.57,7.48,7.57c2.84,0,4.55-0.5,6.04-1.13l0.68,2.84
				c-1.4,0.63-3.79,1.35-7.25,1.35c-6.71,0-10.72-4.42-10.72-10.99c0-6.58,3.88-11.76,10.23-11.76c7.12,0,9.01,6.26,9.01,10.27
				c0,0.81-0.09,1.44-0.14,1.85H383.95z M395.58,879.71c0.04-2.52-1.04-6.44-5.5-6.44c-4.01,0-5.77,3.7-6.08,6.44H395.58z"/>
			<linearGradient id="SVGID_29_" gradientUnits="userSpaceOnUse" x1="433.8509" y1="893.2324" x2="433.8509" y2="860.7441">
				<stop  offset="0.014" style="stop-color:#FFFFFF"/>
				<stop  offset="1" style="stop-color:#FFFFFF"/>
			</linearGradient>
			<path class="st28" d="M443.97,860.74v26.36c0,1.94,0.04,4.15,0.18,5.63h-3.56l-0.18-3.79h-0.09c-1.22,2.43-3.88,4.28-7.44,4.28
				c-5.27,0-9.33-4.46-9.33-11.08c-0.04-7.25,4.46-11.72,9.78-11.72c3.33,0,5.59,1.58,6.58,3.33H440v-13.02H443.97z M440,879.8
				c0-0.5-0.04-1.17-0.18-1.67c-0.59-2.52-2.75-4.6-5.72-4.6c-4.1,0-6.53,3.6-6.53,8.43c0,4.42,2.16,8.07,6.44,8.07
				c2.66,0,5.09-1.76,5.81-4.73c0.14-0.54,0.18-1.08,0.18-1.71V879.8z"/>
			<linearGradient id="SVGID_30_" gradientUnits="userSpaceOnUse" x1="464.2168" y1="893.1865" x2="464.2168" y2="870.4316">
				<stop  offset="0.014" style="stop-color:#FFFFFF"/>
				<stop  offset="1" style="stop-color:#FFFFFF"/>
			</linearGradient>
			<path class="st29" d="M458.38,882.55c0.09,5.36,3.51,7.57,7.48,7.57c2.84,0,4.55-0.5,6.04-1.13l0.68,2.84
				c-1.4,0.63-3.78,1.35-7.25,1.35c-6.71,0-10.72-4.42-10.72-10.99c0-6.58,3.88-11.76,10.23-11.76c7.12,0,9.01,6.26,9.01,10.27
				c0,0.81-0.09,1.44-0.13,1.85H458.38z M470.01,879.71c0.05-2.52-1.04-6.44-5.5-6.44c-4.01,0-5.77,3.7-6.08,6.44H470.01z"/>
			<linearGradient id="SVGID_31_" gradientUnits="userSpaceOnUse" x1="507.6045" y1="893.1865" x2="507.6045" y2="870.4316">
				<stop  offset="0.014" style="stop-color:#FFFFFF"/>
				<stop  offset="1" style="stop-color:#FFFFFF"/>
			</linearGradient>
			<path class="st30" d="M501.77,882.55c0.09,5.36,3.51,7.57,7.48,7.57c2.84,0,4.55-0.5,6.04-1.13l0.68,2.84
				c-1.4,0.63-3.78,1.35-7.25,1.35c-6.71,0-10.72-4.42-10.72-10.99c0-6.58,3.88-11.76,10.23-11.76c7.12,0,9.01,6.26,9.01,10.27
				c0,0.81-0.09,1.44-0.13,1.85H501.77z M513.39,879.71c0.05-2.52-1.04-6.44-5.5-6.44c-4.01,0-5.77,3.7-6.08,6.44H513.39z"/>
			<linearGradient id="SVGID_32_" gradientUnits="userSpaceOnUse" x1="533.3755" y1="893.1865" x2="533.3755" y2="870.4316">
				<stop  offset="0.014" style="stop-color:#FFFFFF"/>
				<stop  offset="1" style="stop-color:#FFFFFF"/>
			</linearGradient>
			<path class="st31" d="M527.23,888.68c1.17,0.77,3.24,1.58,5.23,1.58c2.88,0,4.24-1.44,4.24-3.24c0-1.89-1.13-2.93-4.06-4.01
				c-3.92-1.4-5.77-3.56-5.77-6.17c0-3.51,2.84-6.4,7.53-6.4c2.21,0,4.15,0.63,5.36,1.35l-0.99,2.88c-0.86-0.54-2.43-1.26-4.46-1.26
				c-2.34,0-3.65,1.35-3.65,2.97c0,1.8,1.31,2.61,4.15,3.69c3.79,1.44,5.72,3.33,5.72,6.58c0,3.83-2.97,6.53-8.16,6.53
				c-2.39,0-4.6-0.58-6.13-1.49L527.23,888.68z"/>
			<linearGradient id="SVGID_33_" gradientUnits="userSpaceOnUse" x1="555.2275" y1="893.1865" x2="555.2275" y2="864.6641">
				<stop  offset="0.014" style="stop-color:#FFFFFF"/>
				<stop  offset="1" style="stop-color:#FFFFFF"/>
			</linearGradient>
			<path class="st32" d="M556.02,864.66v6.26h5.68v3.02h-5.68v11.76c0,2.7,0.77,4.24,2.97,4.24c1.04,0,1.8-0.13,2.3-0.27l0.18,2.97
				c-0.77,0.32-1.98,0.54-3.51,0.54c-1.85,0-3.33-0.58-4.28-1.67c-1.13-1.17-1.53-3.11-1.53-5.68v-11.9h-3.38v-3.02h3.38v-5.23
				L556.02,864.66z"/>
			<linearGradient id="SVGID_34_" gradientUnits="userSpaceOnUse" x1="580.5933" y1="893.2324" x2="580.5933" y2="870.4316">
				<stop  offset="0.014" style="stop-color:#FFFFFF"/>
				<stop  offset="1" style="stop-color:#FFFFFF"/>
			</linearGradient>
			<path class="st33" d="M591.25,881.65c0,8.07-5.59,11.58-10.86,11.58c-5.9,0-10.45-4.33-10.45-11.22c0-7.3,4.78-11.58,10.81-11.58
				C587.01,870.43,591.25,874.98,591.25,881.65z M573.95,881.88c0,4.78,2.75,8.38,6.62,8.38c3.78,0,6.62-3.56,6.62-8.47
				c0-3.7-1.85-8.38-6.53-8.38C575.97,873.41,573.95,877.73,573.95,881.88z"/>
			<linearGradient id="SVGID_35_" gradientUnits="userSpaceOnUse" x1="610.5771" y1="901.6582" x2="610.5771" y2="870.4316">
				<stop  offset="0.014" style="stop-color:#FFFFFF"/>
				<stop  offset="1" style="stop-color:#FFFFFF"/>
			</linearGradient>
			<path class="st34" d="M616.75,889.36h-0.09c-1.17,2.16-3.6,3.88-7.12,3.88c-5.09,0-9.24-4.42-9.24-11.04
				c0-8.16,5.27-11.76,9.87-11.76c3.38,0,5.63,1.67,6.71,3.79h0.09l0.14-3.29h3.74c-0.09,1.85-0.13,3.74-0.13,5.99v24.74h-3.96
				V889.36z M616.75,879.76c0-0.54-0.04-1.17-0.18-1.67c-0.59-2.43-2.7-4.51-5.68-4.51c-4.1,0-6.58,3.47-6.58,8.38
				c0,4.33,2.07,8.11,6.44,8.11c2.57,0,4.78-1.58,5.68-4.33c0.18-0.54,0.32-1.31,0.32-1.89V879.76z"/>
			<linearGradient id="SVGID_36_" gradientUnits="userSpaceOnUse" x1="642.0254" y1="893.2324" x2="642.0254" y2="870.9277">
				<stop  offset="0.014" style="stop-color:#FFFFFF"/>
				<stop  offset="1" style="stop-color:#FFFFFF"/>
			</linearGradient>
			<path class="st35" d="M651.13,886.79c0,2.25,0.04,4.24,0.18,5.95h-3.51l-0.23-3.56h-0.09c-1.04,1.76-3.33,4.06-7.21,4.06
				c-3.42,0-7.52-1.89-7.52-9.55v-12.75h3.96V883c0,4.15,1.26,6.94,4.87,6.94c2.66,0,4.51-1.85,5.23-3.6
				c0.22-0.59,0.36-1.31,0.36-2.03v-13.38h3.96V886.79z"/>
			<linearGradient id="SVGID_37_" gradientUnits="userSpaceOnUse" x1="671.3779" y1="893.1865" x2="671.3779" y2="870.4316">
				<stop  offset="0.014" style="stop-color:#FFFFFF"/>
				<stop  offset="1" style="stop-color:#FFFFFF"/>
			</linearGradient>
			<path class="st36" d="M665.54,882.55c0.09,5.36,3.51,7.57,7.48,7.57c2.84,0,4.55-0.5,6.04-1.13l0.68,2.84
				c-1.4,0.63-3.78,1.35-7.25,1.35c-6.71,0-10.72-4.42-10.72-10.99c0-6.58,3.88-11.76,10.23-11.76c7.12,0,9.01,6.26,9.01,10.27
				c0,0.81-0.09,1.44-0.13,1.85H665.54z M677.17,879.71c0.05-2.52-1.04-6.44-5.5-6.44c-4.01,0-5.77,3.7-6.08,6.44H677.17z"/>
			<linearGradient id="SVGID_38_" gradientUnits="userSpaceOnUse" x1="715.8013" y1="893.2324" x2="715.8013" y2="870.4316">
				<stop  offset="0.014" style="stop-color:#FFFFFF"/>
				<stop  offset="1" style="stop-color:#FFFFFF"/>
			</linearGradient>
			<path class="st37" d="M726.46,881.65c0,8.07-5.59,11.58-10.86,11.58c-5.9,0-10.45-4.33-10.45-11.22c0-7.3,4.78-11.58,10.81-11.58
				C722.22,870.43,726.46,874.98,726.46,881.65z M709.16,881.88c0,4.78,2.75,8.38,6.62,8.38c3.78,0,6.62-3.56,6.62-8.47
				c0-3.7-1.85-8.38-6.53-8.38C711.18,873.41,709.16,877.73,709.16,881.88z"/>
			<linearGradient id="SVGID_39_" gradientUnits="userSpaceOnUse" x1="746.2813" y1="892.7363" x2="746.2813" y2="870.4316">
				<stop  offset="0.014" style="stop-color:#FFFFFF"/>
				<stop  offset="1" style="stop-color:#FFFFFF"/>
			</linearGradient>
			<path class="st38" d="M737.09,876.83c0-2.25-0.04-4.1-0.18-5.9h3.51l0.22,3.6h0.09c1.08-2.07,3.6-4.1,7.21-4.1
				c3.02,0,7.71,1.8,7.71,9.28v13.02h-3.96v-12.57c0-3.51-1.31-6.44-5.05-6.44c-2.61,0-4.64,1.85-5.32,4.05
				c-0.18,0.5-0.27,1.17-0.27,1.85v13.11h-3.97V876.83z"/>
			<linearGradient id="SVGID_40_" gradientUnits="userSpaceOnUse" x1="769.7095" y1="892.7363" x2="769.7095" y2="860.7441">
				<stop  offset="0.014" style="stop-color:#FFFFFF"/>
				<stop  offset="1" style="stop-color:#FFFFFF"/>
			</linearGradient>
			<path class="st39" d="M767.73,860.74h3.97v31.99h-3.97V860.74z"/>
			<linearGradient id="SVGID_41_" gradientUnits="userSpaceOnUse" x1="785.9514" y1="892.7363" x2="785.9514" y2="862.3213">
				<stop  offset="0.014" style="stop-color:#FFFFFF"/>
				<stop  offset="1" style="stop-color:#FFFFFF"/>
			</linearGradient>
			<path class="st40" d="M788.41,864.8c0.04,1.35-0.95,2.43-2.52,2.43c-1.4,0-2.39-1.08-2.39-2.43c0-1.4,1.04-2.48,2.48-2.48
				C787.46,862.32,788.41,863.4,788.41,864.8z M783.99,892.74v-21.81h3.97v21.81H783.99z"/>
			<linearGradient id="SVGID_42_" gradientUnits="userSpaceOnUse" x1="809.3574" y1="892.7363" x2="809.3574" y2="870.4316">
				<stop  offset="0.014" style="stop-color:#FFFFFF"/>
				<stop  offset="1" style="stop-color:#FFFFFF"/>
			</linearGradient>
			<path class="st41" d="M800.17,876.83c0-2.25-0.04-4.1-0.18-5.9h3.51l0.22,3.6h0.09c1.08-2.07,3.6-4.1,7.21-4.1
				c3.02,0,7.71,1.8,7.71,9.28v13.02h-3.96v-12.57c0-3.51-1.31-6.44-5.05-6.44c-2.61,0-4.64,1.85-5.32,4.05
				c-0.18,0.5-0.27,1.17-0.27,1.85v13.11h-3.97V876.83z"/>
			<linearGradient id="SVGID_43_" gradientUnits="userSpaceOnUse" x1="838.8457" y1="893.1865" x2="838.8457" y2="870.4316">
				<stop  offset="0.014" style="stop-color:#FFFFFF"/>
				<stop  offset="1" style="stop-color:#FFFFFF"/>
			</linearGradient>
			<path class="st42" d="M833.01,882.55c0.09,5.36,3.51,7.57,7.48,7.57c2.84,0,4.55-0.5,6.04-1.13l0.68,2.84
				c-1.4,0.63-3.78,1.35-7.25,1.35c-6.71,0-10.72-4.42-10.72-10.99c0-6.58,3.88-11.76,10.23-11.76c7.12,0,9.01,6.26,9.01,10.27
				c0,0.81-0.09,1.44-0.13,1.85H833.01z M844.64,879.71c0.05-2.52-1.04-6.44-5.5-6.44c-4.01,0-5.77,3.7-6.08,6.44H844.64z"/>
			<linearGradient id="SVGID_44_" gradientUnits="userSpaceOnUse" x1="860.8984" y1="893.2324" x2="860.8984" y2="862.3662">
				<stop  offset="0.014" style="stop-color:#FFFFFF"/>
				<stop  offset="1" style="stop-color:#FFFFFF"/>
			</linearGradient>
			<path class="st43" d="M858.24,890.44c0-1.62,1.13-2.79,2.66-2.79c1.62,0,2.66,1.17,2.66,2.79c0,1.58-1.04,2.79-2.66,2.79
				C859.32,893.23,858.24,892.02,858.24,890.44z M859.37,884l-0.63-21.63h4.33L862.43,884H859.37z"/>
		</g>
	</g>
</g>
</svg>
